<?xml version="1.0" encoding="UTF-8" standalone="no"?>
<!-- Created with Inkscape (http://www.inkscape.org/) -->

<svg
   xmlns:dc="http://purl.org/dc/elements/1.1/"
   xmlns:cc="http://creativecommons.org/ns#"
   xmlns:rdf="http://www.w3.org/1999/02/22-rdf-syntax-ns#"
   xmlns:svg="http://www.w3.org/2000/svg"
   xmlns="http://www.w3.org/2000/svg"
   xmlns:sodipodi="http://sodipodi.sourceforge.net/DTD/sodipodi-0.dtd"
   xmlns:inkscape="http://www.inkscape.org/namespaces/inkscape"
   id="svg3055"
   version="1.1"
   inkscape:version="0.48.2 r9819"
   width="225"
   height="50"
   sodipodi:docname="buttons.svg"
   inkscape:export-filename="/Users/stuartlowe/Projects/starinabox/css/images/buttons.png"
   inkscape:export-xdpi="72"
   inkscape:export-ydpi="72">
  <metadata
     id="metadata3061">
    <rdf:RDF>
      <cc:Work
         rdf:about="">
        <dc:format>image/svg+xml</dc:format>
        <dc:type
           rdf:resource="http://purl.org/dc/dcmitype/StillImage" />
        <dc:title></dc:title>
      </cc:Work>
    </rdf:RDF>
  </metadata>
  <defs
     id="defs3059" />
  <sodipodi:namedview
     pagecolor="#ffffff"
     bordercolor="#666666"
     borderopacity="1"
     objecttolerance="10"
     gridtolerance="10"
     guidetolerance="10"
     inkscape:pageopacity="0"
     inkscape:pageshadow="2"
     inkscape:window-width="1280"
     inkscape:window-height="752"
     id="namedview3057"
     showgrid="true"
     inkscape:zoom="2.7967033"
     inkscape:cx="133.87554"
     inkscape:cy="1.0272411"
     inkscape:window-x="0"
     inkscape:window-y="0"
     inkscape:window-maximized="0"
     inkscape:current-layer="svg3055">
    <inkscape:grid
       type="xygrid"
       id="grid2997"
       empspacing="5"
       visible="true"
       enabled="true"
       snapvisiblegridlinesonly="true" />
  </sodipodi:namedview>
  <g
     id="g3788"
     style="fill:#757575;fill-opacity:1">
    <g
       transform="translate(-1.359375,0)"
       style="fill:#757575;fill-opacity:1"
       id="g3853">
      <path
         style="fill:#757575;fill-opacity:1;stroke:none"
         d="m 158.84375,4.40625 c -11.10808,0 -20.09375,9.251949 -20.09375,20.65625 0,2.405955 0.38823,4.69654 1.125,6.84375 C 141.61614,29.539217 144.42997,28 147.59375,28 c 5.28251,0 9.5625,4.279989 9.5625,9.5625 0,2.987557 -1.38554,5.683494 -3.53125,7.4375 1.6649,0.45816 3.41305,0.71875 5.21875,0.71875 11.10808,0 20.125,-9.251949 20.125,-20.65625 0,-11.404301 -9.01692,-20.65625 -20.125,-20.65625 z"
         id="path3065"
         inkscape:connector-curvature="0" />
      <path
         sodipodi:type="arc"
         style="fill:#757575;fill-opacity:1;stroke:none"
         id="path3073"
         sodipodi:cx="146.77997"
         sodipodi:cy="38.379173"
         sodipodi:rx="5.8998036"
         sodipodi:ry="5.8998036"
         d="m 152.67977,38.379173 c 0,3.258372 -2.64143,5.899804 -5.8998,5.899804 -3.25837,0 -5.89981,-2.641432 -5.89981,-5.899804 0,-3.258371 2.64144,-5.899803 5.89981,-5.899803 3.25837,0 5.8998,2.641432 5.8998,5.899803 z"
         transform="matrix(1.1363636,0,0,1.1363636,-19.210931,-6.0380422)" />
    </g>
    <g
       style="fill:#757575;fill-opacity:1"
       id="g3824">
      <path
         sodipodi:type="arc"
         style="fill:#757575;fill-opacity:1;stroke:none"
         id="path3077"
         sodipodi:cx="17.341846"
         sodipodi:cy="37.485264"
         sodipodi:rx="9.6542244"
         sodipodi:ry="9.6542244"
         d="m 26.996071,37.485264 a 9.6542244,9.6542244 0 1 1 -19.3084489,0 9.6542244,9.6542244 0 1 1 19.3084489,0 z"
         transform="translate(5.1581535,0)" />
      <path
         style="fill:#757575;fill-opacity:1;stroke:none"
         d="m 22.189403,4.875 c -2.703784,0 -4.905688,2.2735731 -4.9375,5.125 l 4.96875,0 0,0.9375 -4.96875,0 0,2.09375 1.9375,0 0,0.9375 -1.9375,0 0,2.03125 1.9375,0 0,0.9375 -1.9375,0 0,2.09375 1.9375,0 0,0.9375 -1.9375,0 0,2.09375 1.9375,0 0,0.9375 -1.9375,0 0,1.96875 4.96875,0 0,0.9375 -4.96875,0 0,4.4375 c 0,2.8808 2.213758,5.1875 4.9375,5.1875 2.723743,0 4.90625,-2.3067 4.90625,-5.1875 l 0,-20.28125 c 0,-2.8807999 -2.182507,-5.1875 -4.90625,-5.1875 z"
         id="rect3079"
         inkscape:connector-curvature="0" />
    </g>
    <rect
       ry="0"
       y="38.468567"
       x="104.19032"
       height="7.334548"
       width="16.716108"
       id="rect3960"
       style="fill:#757575;fill-opacity:1;stroke:none" />
    <path
       sodipodi:nodetypes="ccccc"
       inkscape:connector-curvature="0"
       id="path2999"
       d="m 188,25 29,0 3,20 -35,0 z"
       style="fill:#757575;fill-opacity:1;stroke:none" />
  </g>
  <g
     id="g3992"
     style="stroke:#757575;stroke-opacity:1"
     transform="translate(-2.4530975,0)">
    <path
       sodipodi:nodetypes="cssssscc"
       inkscape:connector-curvature="0"
       id="path3962"
       d="m 108.61002,35.339882 c 0,0 0.15854,-4.543237 -2.05599,-7.41945 -2.28326,-2.965479 -5.17835,-5.359009 -5.0059,-10.101179 0.17879,-4.916503 4.46956,-11.8889977 13.58743,-11.8889976 9.2077,1e-7 13.22986,7.2406676 13.22986,11.8889976 0,4.64919 -3.69351,7.661919 -5.36346,10.458743 -1.77641,2.975119 -1.60903,7.240668 -1.60903,7.240668 z"
       style="fill:none;stroke:#757575;stroke-width:4;stroke-linecap:butt;stroke-linejoin:miter;stroke-miterlimit:4;stroke-opacity:1;stroke-dasharray:none" />
    <path
       sodipodi:nodetypes="csczzzzzcsc"
       inkscape:connector-curvature="0"
       id="path3964"
       d="m 112.27505,34.535364 c 0,0 0.0894,-3.754421 -0.35757,-6.704323 -0.44695,-2.949902 -1.69843,-7.330058 -1.69843,-7.330058 1.1749,0.68443 3.12828,2.042344 2.50295,3.083987 -0.62532,1.041644 -0.19664,-3.888507 0.75982,-3.888507 0.95646,0 2.33183,3.989731 1.38557,3.933203 -0.94626,-0.05653 0.35756,-3.843812 1.43025,-3.799116 1.07269,0.0447 1.58301,3.918597 0.62573,3.799116 -0.95727,-0.119481 1.11564,-2.584121 2.68174,-3.352161 0,0 -1.25147,3.888507 -1.69843,7.553536 -0.44695,3.66503 -0.44695,6.704322 -0.44695,6.704322"
       style="fill:none;stroke:#757575;stroke-width:1px;stroke-linecap:butt;stroke-linejoin:miter;stroke-opacity:1" />
  </g>
  <g
     id="g3769"
     style="stroke:#757575;stroke-opacity:1">
    <path
       transform="translate(-10,-1.5)"
       d="m 220,17.5 a 7.5,7.5 0 1 1 -15,0 7.5,7.5 0 1 1 15,0 z"
       sodipodi:ry="7.5"
       sodipodi:rx="7.5"
       sodipodi:cy="17.5"
       sodipodi:cx="212.5"
       id="path3769"
       style="fill:none;stroke:#757575;stroke-width:3;stroke-miterlimit:4;stroke-opacity:1;stroke-dasharray:none"
       sodipodi:type="arc" />
    <path
       sodipodi:type="arc"
       style="fill:none;stroke:#757575;stroke-width:3;stroke-miterlimit:4;stroke-opacity:1;stroke-dasharray:none"
       id="path3767"
       sodipodi:cx="212.5"
       sodipodi:cy="17.5"
       sodipodi:rx="7.5"
       sodipodi:ry="7.5"
       d="m 220,17.5 a 7.5,7.5 0 1 1 -15,0 7.5,7.5 0 1 1 15,0 z"
       transform="translate(-10,11)" />
  </g>
  <g
     id="g3784"
     style="stroke:#757575;stroke-opacity:1">
    <path
       sodipodi:type="arc"
       style="fill:none;stroke:#757575;stroke-width:3;stroke-miterlimit:4;stroke-opacity:1;stroke-dasharray:none"
       id="path3776"
       sodipodi:cx="212.5"
       sodipodi:cy="17.5"
       sodipodi:rx="7.5"
       sodipodi:ry="7.5"
       d="m 220,17.5 a 7.5,7.5 0 1 1 -15,0 7.5,7.5 0 1 1 15,0 z"
       transform="matrix(2.1833333,0,0,2.1833333,-397.33333,-12.833333)" />
    <path
       sodipodi:nodetypes="ccc"
       inkscape:connector-curvature="0"
       id="path3782"
       d="m 58,19 9,7 6,-4"
       style="fill:none;stroke:#757575;stroke-width:2;stroke-linecap:butt;stroke-linejoin:miter;stroke-miterlimit:4;stroke-opacity:1;stroke-dasharray:none" />
  </g>
</svg>
