<?xml version="1.0" encoding="UTF-8" standalone="no"?>
<!-- Created with Inkscape (http://www.inkscape.org/) -->

<svg
   xmlns:dc="http://purl.org/dc/elements/1.1/"
   xmlns:cc="http://creativecommons.org/ns#"
   xmlns:rdf="http://www.w3.org/1999/02/22-rdf-syntax-ns#"
   xmlns:svg="http://www.w3.org/2000/svg"
   xmlns="http://www.w3.org/2000/svg"
   xmlns:xlink="http://www.w3.org/1999/xlink"
   xmlns:sodipodi="http://sodipodi.sourceforge.net/DTD/sodipodi-0.dtd"
   xmlns:inkscape="http://www.inkscape.org/namespaces/inkscape"
   width="80"
   height="16"
   id="svg3816"
   version="1.1"
   inkscape:version="0.48.2 r9819"
   sodipodi:docname="icons.svg"
   inkscape:export-filename="/Users/stuartlowe/Projects/siab/css/images/icons.png"
   inkscape:export-xdpi="202.5"
   inkscape:export-ydpi="202.5">
  <defs
     id="defs3818">
    <linearGradient
       id="linearGradient3775">
      <stop
         id="stop3777"
         offset="0"
         style="stop-color:#939393;stop-opacity:1;" />
      <stop
         id="stop3779"
         offset="1"
         style="stop-color:#f0f0f0;stop-opacity:1;" />
    </linearGradient>
    <linearGradient
       gradientTransform="matrix(0.73584906,0,0,1.0260417,69.831162,551.34231)"
       gradientUnits="userSpaceOnUse"
       y2="213.05951"
       x2="64.520844"
       y1="31.139874"
       x1="64.520836"
       id="linearGradient3781"
       xlink:href="#linearGradient3775-7"
       inkscape:collect="always" />
    <linearGradient
       id="linearGradient3775-7">
      <stop
         id="stop3777-3"
         offset="0"
         style="stop-color:#939393;stop-opacity:1;" />
      <stop
         id="stop3779-6"
         offset="1"
         style="stop-color:#f0f0f0;stop-opacity:1;" />
    </linearGradient>
  </defs>
  <sodipodi:namedview
     id="base"
     pagecolor="#ffffff"
     bordercolor="#666666"
     borderopacity="1.0"
     inkscape:pageopacity="0.0"
     inkscape:pageshadow="2"
     inkscape:zoom="11.313709"
     inkscape:cx="44.080139"
     inkscape:cy="2.3174438"
     inkscape:document-units="px"
     inkscape:current-layer="layer1"
     showgrid="true"
     inkscape:window-width="1280"
     inkscape:window-height="756"
     inkscape:window-x="112"
     inkscape:window-y="39"
     inkscape:window-maximized="0"
     fit-margin-top="0"
     fit-margin-left="0"
     fit-margin-right="0"
     fit-margin-bottom="0"
     showguides="true"
     inkscape:guide-bbox="true">
    <inkscape:grid
       type="xygrid"
       id="grid3826"
       empspacing="2"
       visible="true"
       enabled="true"
       snapvisiblegridlinesonly="true"
       spacingx="0.5px"
       spacingy="0.5px" />
  </sodipodi:namedview>
  <metadata
     id="metadata3821">
    <rdf:RDF>
      <cc:Work
         rdf:about="">
        <dc:format>image/svg+xml</dc:format>
        <dc:type
           rdf:resource="http://purl.org/dc/dcmitype/StillImage" />
        <dc:title />
      </cc:Work>
    </rdf:RDF>
  </metadata>
  <g
     inkscape:label="Layer 1"
     inkscape:groupmode="layer"
     id="layer1"
     transform="translate(0,-1036.3622)">
    <g
       id="g6051"
       style="fill:none"
       transform="translate(0,-15.999983)">
      <rect
         style="fill:none;stroke:none"
         id="rect6006"
         width="16"
         height="16"
         x="0"
         y="1084.3622"
         ry="0.066356063" />
      <rect
         style="fill:none;stroke:none"
         id="rect5932"
         width="16"
         height="16"
         x="0"
         y="1052.3622"
         ry="0.066356063" />
      <rect
         style="fill:none;stroke:none"
         id="rect5972"
         width="16"
         height="16"
         x="16"
         y="1068.3622"
         ry="0.066356063" />
      <rect
         ry="0.066356063"
         y="1052.3622"
         x="32"
         height="16"
         width="16"
         id="rect5974"
         style="fill:none;stroke:none" />
      <rect
         ry="0.066356063"
         y="1084.3622"
         x="32"
         height="16"
         width="16"
         id="rect6008"
         style="fill:none;stroke:none" />
      <rect
         style="fill:none;stroke:none"
         id="rect6010"
         width="16"
         height="16"
         x="16"
         y="1100.3622"
         ry="0.066356063" />
      <rect
         transform="matrix(0,-1,1,0,0,0)"
         ry="0.066356063"
         y="6.9337189e-14"
         x="-1132.3622"
         height="16"
         width="16"
         id="rect6012"
         style="fill:none;stroke:none" />
      <rect
         style="fill:none;stroke:none"
         id="rect6014"
         width="16"
         height="16"
         x="32"
         y="1116.3622"
         ry="0.066356063" />
      <rect
         ry="0.066356063"
         y="1132.3622"
         x="16"
         height="16"
         width="16"
         id="rect6037"
         style="fill:none;stroke:none" />
      <rect
         style="fill:none;stroke:none"
         id="rect6039"
         width="16"
         height="16"
         x="-1164.3622"
         y="6.9337189e-14"
         ry="0.066356063"
         transform="matrix(0,-1,1,0,0,0)" />
      <rect
         ry="0.066356063"
         y="1148.3622"
         x="32"
         height="16"
         width="16"
         id="rect6041"
         style="fill:none;stroke:none" />
    </g>
    <text
       xml:space="preserve"
       style="font-size:40px;font-style:normal;font-variant:normal;font-weight:normal;font-stretch:normal;line-height:125%;letter-spacing:0px;word-spacing:0px;fill:#000000;fill-opacity:1;stroke:none;font-family:Century Gothic;-inkscape-font-specification:Century Gothic"
       x="50.940369"
       y="20.206964"
       id="text5513"
       sodipodi:linespacing="125%"
       transform="translate(0,1052.3622)"><tspan
         sodipodi:role="line"
         id="tspan5515"
         x="50.940369"
         y="20.206964" /></text>
    <g
       id="layer1-4"
       inkscape:label="Layer 1"
       style="fill:#ffffff;fill-opacity:1;stroke:#ffffff;stroke-opacity:1"
       transform="matrix(1.3392857,0,0,1.3392857,-3.0714284,-354.33716)">
      <path
         sodipodi:nodetypes="ccccc"
         inkscape:connector-curvature="0"
         id="path3828-1"
         d="m 5,1040.3622 0,8 7,-4 -7,-4 0,0"
         style="fill:#ffffff;fill-opacity:1;stroke:#ffffff;stroke-width:1;stroke-linecap:round;stroke-linejoin:round;stroke-miterlimit:4;stroke-opacity:1;stroke-dasharray:none" />
    </g>
    <g
       id="g3114"
       transform="matrix(1,0,0,0.90909091,-1.999971,35.396564)"
       style="fill:#ffffff;fill-opacity:1">
      <path
         sodipodi:nodetypes="ccccc"
         inkscape:connector-curvature="0"
         id="path4091"
         d="m 22.999927,1104.3622 2.000044,0 c -1.1e-5,4.0741 -1.8e-5,6.9259 -2.9e-5,11 l -2.000044,0 c 1.1e-5,-4.0741 1.9e-5,-6.9259 2.9e-5,-11 z"
         style="fill:#ffffff;fill-opacity:1;stroke:none" />
      <path
         style="fill:#ffffff;fill-opacity:1;stroke:none"
         d="m 27,1104.3622 1.999971,0 c -1.1e-5,4.0741 -1.8e-5,6.9259 -2.9e-5,11 l -1.999971,0 c 1.1e-5,-4.0741 1.9e-5,-6.9259 2.9e-5,-11 z"
         id="path4093"
         inkscape:connector-curvature="0"
         sodipodi:nodetypes="ccccc" />
    </g>
    <g
       id="g3118"
       style="fill:#ffffff;fill-opacity:1">
      <path
         sodipodi:nodetypes="ccccc"
         inkscape:connector-curvature="0"
         id="path3128"
         d="m 58.999993,1039.8622 1.000022,0 c -5e-6,3.3333 -9e-6,5.6667 -1.5e-5,9 l -1.000022,0 c 5e-6,-3.3333 9e-6,-5.6667 1.5e-5,-9 z"
         style="fill:#ffffff;fill-opacity:1;stroke:none" />
      <path
         inkscape:connector-curvature="0"
         id="path3138"
         d="m 52,1044.3622 5.142878,4.2857 c 0,0 0.428569,0.4286 0.857139,0 0.42857,-0.4286 10e-7,-0.8571 10e-7,-0.8571 l -4.285739,-3.4286 4.285733,-3.4286 c 0,0 0.428569,-0.4286 0,-0.8571 -0.428569,-0.4286 -0.85714,0 -0.85714,0 z"
         style="fill:#ffffff;fill-opacity:1;stroke:none" />
    </g>
    <g
       id="g3122"
       transform="matrix(-1,0,0,1,128,0)"
       style="fill:#ffffff;fill-opacity:1">
      <path
         style="fill:#ffffff;fill-opacity:1;stroke:none"
         d="m 58.999993,1039.8622 1.000022,0 c -5e-6,3.3333 -9e-6,5.6667 -1.5e-5,9 l -1.000022,0 c 5e-6,-3.3333 9e-6,-5.6667 1.5e-5,-9 z"
         id="path3124"
         inkscape:connector-curvature="0"
         sodipodi:nodetypes="ccccc" />
      <path
         style="fill:#ffffff;fill-opacity:1;stroke:none"
         d="m 52,1044.3622 5.142878,4.2857 c 0,0 0.428569,0.4286 0.857139,0 0.42857,-0.4286 10e-7,-0.8571 10e-7,-0.8571 l -4.285739,-3.4286 4.285733,-3.4286 c 0,0 0.428569,-0.4286 0,-0.8571 -0.428569,-0.4286 -0.85714,0 -0.85714,0 z"
         id="path3126"
         inkscape:connector-curvature="0" />
    </g>
    <path
       sodipodi:nodetypes="ccccc"
       inkscape:connector-curvature="0"
       id="path3927"
       d="m 37.000022,1039.8622 -1.000022,0 c 5e-6,3.3333 9e-6,5.6667 1.5e-5,9 l 1.000022,0 c -5e-6,-3.3333 -9e-6,-5.6667 -1.5e-5,-9 z"
       style="fill:#ffffff;fill-opacity:1;stroke:none" />
    <path
       inkscape:connector-curvature="0"
       id="path3929"
       d="m 37.809522,1044.3622 5.142878,4.2857 c 0,0 0.428569,0.4286 0.857139,0 0.42857,-0.4286 10e-7,-0.8571 10e-7,-0.8571 l -4.285739,-3.4286 4.285733,-3.4286 c 0,0 0.428569,-0.4286 0,-0.8571 -0.428569,-0.4286 -0.85714,0 -0.85714,0 z"
       style="fill:#ffffff;fill-opacity:1;stroke:none" />
  </g>
</svg>
