<?xml version="1.0" encoding="UTF-8" standalone="no"?>
<!-- Created with Inkscape (http://www.inkscape.org/) -->

<svg
   xmlns:dc="http://purl.org/dc/elements/1.1/"
   xmlns:cc="http://creativecommons.org/ns#"
   xmlns:rdf="http://www.w3.org/1999/02/22-rdf-syntax-ns#"
   xmlns:svg="http://www.w3.org/2000/svg"
   xmlns="http://www.w3.org/2000/svg"
   xmlns:xlink="http://www.w3.org/1999/xlink"
   xmlns:sodipodi="http://sodipodi.sourceforge.net/DTD/sodipodi-0.dtd"
   xmlns:inkscape="http://www.inkscape.org/namespaces/inkscape"
   width="993"
   height="573"
   id="svg2"
   version="1.1"
   inkscape:version="0.48.2 r9819"
   sodipodi:docname="liv_overlay.svg"
   inkscape:export-filename="/Users/stuartlowe/Projects/starinabox/ui/design/temp/lid_overlay.png"
   inkscape:export-xdpi="90"
   inkscape:export-ydpi="90">
  <defs
     id="defs4">
    <clipPath
       id="clipPath7698"
       clipPathUnits="userSpaceOnUse">
      <rect
         style="opacity:0.61206863;fill:#ffffff;fill-opacity:1;stroke:none"
         id="rect7700"
         width="2990"
         height="2114.2856"
         x="-4.8465581"
         y="-1057.6381" />
    </clipPath>
    <linearGradient
       id="linearGradient4342">
      <stop
         style="stop-color:#000000;stop-opacity:0;"
         offset="0"
         id="stop4344" />
      <stop
         style="stop-color:#000000;stop-opacity:0.57480317;"
         offset="1"
         id="stop4346" />
    </linearGradient>
    <linearGradient
       id="linearGradient4217">
      <stop
         id="stop4219"
         offset="0"
         style="stop-color:#000000;stop-opacity:0;" />
      <stop
         style="stop-color:#000000;stop-opacity:0.2519685;"
         offset="0.20340921"
         id="stop4225" />
      <stop
         style="stop-color:#000000;stop-opacity:0.66141731;"
         offset="0.56796396"
         id="stop4221" />
      <stop
         id="stop4223"
         offset="1"
         style="stop-color:#000000;stop-opacity:1;" />
    </linearGradient>
    <linearGradient
       id="linearGradient4195">
      <stop
         style="stop-color:#000000;stop-opacity:0;"
         offset="0"
         id="stop4197" />
      <stop
         id="stop4215"
         offset="0.5"
         style="stop-color:#000000;stop-opacity:0.20472442;" />
      <stop
         style="stop-color:#000000;stop-opacity:0.74015749;"
         offset="1"
         id="stop4199" />
    </linearGradient>
    <color-profile
       name="Generic-CMYK-Profile"
       xlink:href="/System/Library/ColorSync/Profiles/Generic CMYK Profile.icc"
       id="color-profile3379-3" />
    <clipPath
       clipPathUnits="userSpaceOnUse"
       id="clipPath4328">
      <rect
         y="-1932.4362"
         x="-4.7982244"
         height="2989.3438"
         width="2114.103"
         id="rect4330"
         style="opacity:0.5;fill:url(#radialGradient4332);fill-opacity:1;stroke:none" />
    </clipPath>
    <radialGradient
       inkscape:collect="always"
       xlink:href="#linearGradient4195"
       id="radialGradient4332"
       gradientUnits="userSpaceOnUse"
       gradientTransform="matrix(-2.0000934,-0.00124581,0.00158405,-2.5431027,3294.5125,-4028.3687)"
       cx="1111.6243"
       cy="-1113.5962"
       fx="1111.6243"
       fy="-1113.5962"
       r="1057.0515" />
    <linearGradient
       gradientTransform="translate(165.10943,0)"
       gradientUnits="userSpaceOnUse"
       y2="466.24738"
       x2="283.19626"
       y1="387.05142"
       x1="282.84271"
       id="linearGradient4058"
       xlink:href="#linearGradient4052"
       inkscape:collect="always" />
    <mask
       id="mask8760"
       maskUnits="userSpaceOnUse">
      <g
         style="fill:#ffffff;fill-opacity:1"
         transform="translate(3.3396951,-10.019084)"
         id="g8762">
        <path
           style="fill:#ffffff;fill-opacity:1;stroke:#000000;stroke-width:1px;stroke-linecap:butt;stroke-linejoin:miter;stroke-opacity:1"
           d="m 348.75954,164.33206 -10.01908,27.19466 c 0,0 -8.58779,-10.01909 -13.35878,-11.45039 -4.77099,-1.43129 -13.83588,-1.43129 -14.79008,1.4313 -0.95419,2.8626 -1.9084,6.91794 4.29389,8.82634 6.20229,1.90839 29.81871,11.45038 32.68131,19.08397 2.86259,7.63359 7.87213,30.7729 -17.89123,38.40649 -25.76336,7.63358 -62.0229,-3.8168 -62.0229,-3.8168 l 9.06489,-29.10305 c 0,0 7.15649,10.49618 14.79007,12.88168 7.63359,2.38549 14.5838,0.21779 15.50573,-3.10115 0.92193,-3.31894 -4.53244,-6.91794 -10.25763,-8.82633 -5.7252,-1.9084 -26.00191,-10.73474 -26.00191,-25.52481 0,-14.79008 6.91794,-28.38741 28.3874,-30.7729 21.46947,-2.3855 49.61832,4.77099 49.61832,4.77099 z"
           id="path8764"
           inkscape:connector-curvature="0"
           sodipodi:nodetypes="ccsssssccszsssc" />
        <path
           inkscape:connector-curvature="0"
           style="fill:#ffffff;fill-opacity:1;stroke:#000000;stroke-width:1px;stroke-linecap:butt;stroke-linejoin:miter;stroke-opacity:1"
           d="m 388.71875,159.75 c -8.96531,-0.0147 -17.94294,0.14127 -26.84375,0.0625 l 0.25,89.4375 38.625,-0.21875 0,-37.9375 c 0,0 8.84542,9.29795 21.25,8.34375 12.40458,-0.9542 27.67915,-10.00572 28.15625,-25.75 0.4771,-15.74427 -5.01002,-26.96445 -16.9375,-30.78125 -14.6141,-2.66311 -29.55782,-3.1318 -44.5,-3.15625 z m 15.59375,18.96875 c 4.06339,0.009 10.54444,1.47259 10.3125,10.75 -0.33736,13.4944 -13.5,9.78125 -13.5,9.78125 l 0,-20.25 c 0,0 1.3405,-0.28537 3.1875,-0.28125 z"
           id="path8766" />
        <path
           inkscape:connector-curvature="0"
           style="fill:#ffffff;fill-opacity:1;stroke:#000000;stroke-width:1px;stroke-linecap:butt;stroke-linejoin:miter;stroke-opacity:1"
           d="m 483.78125,160.03125 -30.53125,88.75 38.875,0.25 5.5,-15.03125 29.09375,0 5.25,15.03125 39.125,-0.25 -30.53125,-88.75 -56.78125,0 z m 28,30.78125 7.40625,22.9375 -14.84375,0 7.4375,-22.9375 z"
           id="path8768" />
        <path
           style="fill:#ffffff;fill-opacity:1;stroke:#000000;stroke-width:1px;stroke-linecap:butt;stroke-linejoin:miter;stroke-opacity:1"
           d="m 662.69084,167.67175 -15.74427,31.48855 c 0,0 -9.06489,-2.38549 -16.69848,-2.38549 -7.63358,0 -12.44452,3.46161 -12.64313,6.44084 -0.19862,2.97923 5.00955,8.34923 13.59733,8.34923 8.58779,0 16.22138,-3.81679 16.22138,-3.81679 l 15.74427,33.87405 c 0,0 -17.17557,10.97328 -37.69084,9.06488 -20.51527,-1.9084 -42.46183,-11.92748 -45.80152,-37.21373 -3.3397,-25.28626 5.24809,-39.59925 20.99236,-47.70993 15.74428,-8.11069 28.62596,-7.87214 39.12214,-5.96374 10.49618,1.9084 22.90076,7.87213 22.90076,7.87213 z"
           id="path8770"
           inkscape:connector-curvature="0"
           sodipodi:nodetypes="ccszsccssssc" />
        <path
           style="fill:#ffffff;fill-opacity:1;stroke:#000000;stroke-width:1px;stroke-linecap:butt;stroke-linejoin:miter;stroke-opacity:1"
           d="m 673.18702,160.03817 0.4771,89.69465 74.18894,0 -10e-6,-22.42366 -34.82824,0.23855 0,-12.16603 24.33206,0 0,-21.46947 -24.57061,0 0,-11.45038 35.30534,-0.23855 0,-22.42366 z"
           id="path8772"
           inkscape:connector-curvature="0"
           sodipodi:nodetypes="ccccccccccccc" />
      </g>
    </mask>
    <linearGradient
       y2="148.55763"
       x2="257.05768"
       y1="148.55763"
       x1="41.686577"
       gradientTransform="matrix(1.0297765,0,0,1.0297765,-4.5752212,-63.00406)"
       gradientUnits="userSpaceOnUse"
       id="linearGradient8287"
       xlink:href="#linearGradient3800"
       inkscape:collect="always" />
    <linearGradient
       y2="130.82303"
       x2="208.0329"
       y1="69.896034"
       x1="166.09261"
       gradientTransform="matrix(0.51149533,0,0,0.51149532,-25.720671,19.290246)"
       gradientUnits="userSpaceOnUse"
       id="linearGradient8281"
       xlink:href="#linearGradient3889"
       inkscape:collect="always" />
    <linearGradient
       y2="148.55763"
       x2="257.05768"
       y1="148.55763"
       x1="41.686577"
       gradientTransform="matrix(1.0297765,0,0,1.0297765,-4.5752212,-63.00406)"
       gradientUnits="userSpaceOnUse"
       id="linearGradient8238"
       xlink:href="#linearGradient3800"
       inkscape:collect="always" />
    <linearGradient
       y2="130.82303"
       x2="208.0329"
       y1="69.896034"
       x1="166.09261"
       gradientTransform="matrix(0.51149533,0,0,0.51149532,-25.720671,19.290246)"
       gradientUnits="userSpaceOnUse"
       id="linearGradient8232"
       xlink:href="#linearGradient3889"
       inkscape:collect="always" />
    <linearGradient
       id="linearGradient3889">
      <stop
         id="stop3891"
         offset="0"
         style="stop-color:#ffffff;stop-opacity:1;" />
      <stop
         style="stop-color:#e3e5e9;stop-opacity:1;"
         offset="0.3102555"
         id="stop3893" />
      <stop
         style="stop-color:#ffffff;stop-opacity:1;"
         offset="0.51721585"
         id="stop3895" />
      <stop
         id="stop3897"
         offset="1"
         style="stop-color:#c2c0c0;stop-opacity:1;" />
    </linearGradient>
    <linearGradient
       id="linearGradient3834">
      <stop
         style="stop-color:#ff8102;stop-opacity:1;"
         offset="0"
         id="stop3836" />
      <stop
         id="stop3844"
         offset="0.14583333"
         style="stop-color:#f57f09;stop-opacity:0.41025642;" />
      <stop
         style="stop-color:#eb7e11;stop-opacity:0;"
         offset="1"
         id="stop3838" />
    </linearGradient>
    <linearGradient
       id="linearGradient3822">
      <stop
         style="stop-color:#000000;stop-opacity:1;"
         offset="0"
         id="stop3824" />
      <stop
         style="stop-color:#000000;stop-opacity:0;"
         offset="1"
         id="stop3826" />
    </linearGradient>
    <linearGradient
       id="linearGradient3800">
      <stop
         style="stop-color:#ffffff;stop-opacity:1;"
         offset="0"
         id="stop3802" />
      <stop
         id="stop3848"
         offset="0.25"
         style="stop-color:#e3e5e9;stop-opacity:1;" />
      <stop
         id="stop3846"
         offset="0.5"
         style="stop-color:#ffffff;stop-opacity:1;" />
      <stop
         style="stop-color:#c2c0c0;stop-opacity:1;"
         offset="1"
         id="stop3804" />
    </linearGradient>
    <linearGradient
       id="linearGradient3786">
      <stop
         style="stop-color:#323232;stop-opacity:1;"
         offset="0"
         id="stop3788" />
      <stop
         style="stop-color:#000000;stop-opacity:1;"
         offset="1"
         id="stop3790" />
    </linearGradient>
    <linearGradient
       id="linearGradient3766">
      <stop
         style="stop-color:#ebbd3b;stop-opacity:1;"
         offset="0"
         id="stop3768" />
      <stop
         style="stop-color:#e54218;stop-opacity:1;"
         offset="1"
         id="stop3770" />
    </linearGradient>
    <linearGradient
       inkscape:collect="always"
       xlink:href="#linearGradient3786"
       id="linearGradient3794"
       x1="255"
       y1="187.00504"
       x2="217.85716"
       y2="124.86218"
       gradientUnits="userSpaceOnUse"
       gradientTransform="matrix(2.4325158,0,0,1.3919598,-83.9045,-26.963212)" />
    <linearGradient
       inkscape:collect="always"
       xlink:href="#linearGradient3889"
       id="linearGradient3806"
       x1="166.09261"
       y1="69.896034"
       x2="208.0329"
       y2="130.82303"
       gradientUnits="userSpaceOnUse"
       gradientTransform="matrix(0.44765251,0,0,0.44765251,68.855154,66.003253)" />
    <linearGradient
       inkscape:collect="always"
       xlink:href="#linearGradient3800"
       id="linearGradient3828"
       x1="41.686577"
       y1="148.55763"
       x2="257.05768"
       y2="148.55763"
       gradientUnits="userSpaceOnUse"
       gradientTransform="matrix(1.0093806,0,0,1.0093806,83.956695,-18.929694)" />
    <radialGradient
       inkscape:collect="always"
       xlink:href="#linearGradient3786"
       id="radialGradient3920"
       cx="355.99942"
       cy="-108.52979"
       fx="355.99942"
       fy="-108.52979"
       r="554.78571"
       gradientTransform="matrix(-0.99828628,0.05851931,-0.02832497,-0.48319813,733.74377,-13.769195)"
       gradientUnits="userSpaceOnUse" />
    <linearGradient
       id="linearGradient3791">
      <stop
         id="stop3793"
         offset="0"
         style="stop-color:#fe6e02;stop-opacity:1;" />
      <stop
         style="stop-color:#ee992d;stop-opacity:1;"
         offset="0.07190899"
         id="stop3799" />
      <stop
         id="stop3840"
         offset="0.12645309"
         style="stop-color:#fe6e02;stop-opacity:1;" />
      <stop
         id="stop3801"
         offset="0.17798074"
         style="stop-color:#ffa81a;stop-opacity:1;" />
      <stop
         style="stop-color:#dd8a41;stop-opacity:1;"
         offset="0.27445245"
         id="stop3803" />
      <stop
         id="stop3807"
         offset="0.42977548"
         style="stop-color:#655b5b;stop-opacity:1;" />
      <stop
         style="stop-color:#2e3143;stop-opacity:1;"
         offset="0.64310992"
         id="stop3830" />
      <stop
         id="stop3805"
         offset="1"
         style="stop-color:#050515;stop-opacity:1;" />
    </linearGradient>
    <linearGradient
       id="linearGradient4044">
      <stop
         id="stop4046"
         offset="0"
         style="stop-color:#ffffff;stop-opacity:1;" />
      <stop
         id="stop4048"
         offset="1"
         style="stop-color:#ffffff;stop-opacity:0;" />
    </linearGradient>
    <linearGradient
       id="linearGradient4052">
      <stop
         id="stop4054"
         offset="0"
         style="stop-color:#000305;stop-opacity:1;" />
      <stop
         id="stop4056"
         offset="1"
         style="stop-color:#001e30;stop-opacity:1;" />
    </linearGradient>
    <color-profile
       id="color-profile3379"
       xlink:href="/System/Library/ColorSync/Profiles/Generic CMYK Profile.icc"
       name="Generic-CMYK-Profile" />
    <linearGradient
       id="linearGradient4502">
      <stop
         id="stop4504"
         offset="0"
         style="stop-color:#000000;stop-opacity:0.57480317;" />
      <stop
         id="stop4506"
         offset="1"
         style="stop-color:#000000;stop-opacity:0;" />
    </linearGradient>
  </defs>
  <sodipodi:namedview
     id="base"
     pagecolor="#ffffff"
     bordercolor="#666666"
     borderopacity="1.0"
     inkscape:pageopacity="0.0"
     inkscape:pageshadow="2"
     inkscape:zoom="0.70710678"
     inkscape:cx="454.19986"
     inkscape:cy="253.44439"
     inkscape:document-units="px"
     inkscape:current-layer="layer1"
     showgrid="false"
     fit-margin-top="0"
     fit-margin-left="0"
     fit-margin-right="0"
     fit-margin-bottom="0"
     inkscape:window-width="1280"
     inkscape:window-height="752"
     inkscape:window-x="0"
     inkscape:window-y="0"
     inkscape:window-maximized="0" />
  <metadata
     id="metadata7">
    <rdf:RDF>
      <cc:Work
         rdf:about="">
        <dc:format>image/svg+xml</dc:format>
        <dc:type
           rdf:resource="http://purl.org/dc/dcmitype/StillImage" />
        <dc:title></dc:title>
      </cc:Work>
    </rdf:RDF>
  </metadata>
  <g
     inkscape:label="Layer 1"
     inkscape:groupmode="layer"
     id="layer1"
     transform="translate(121.5,-245.86218)">
    <g
       id="g4101"
       transform="matrix(0.32929394,0,0,0.32929394,393.55806,556.00283)"
       style="fill:#0031bb;fill-opacity:1">
      <path
         inkscape:connector-curvature="0"
         id="rect3292"
         d="m 729.0625,59.216875 0,288.906245 286.875,0 0,-288.906245 -286.875,0 z m 16.15625,16.1875 254.56245,0 0,254.531245 -254.56245,0 0,-254.531245 z"
         style="fill:#0031bb;fill-opacity:1;stroke:none" />
      <g
         id="g4075"
         style="fill:#0031bb;fill-opacity:1">
        <path
           style="fill:#0031bb;fill-opacity:1;stroke:none"
           d="m 1003.0815,53.276516 0,-46.9720939 c 0,0 9.0913,-20.2030501 20.203,-32.3248811 11.1117,-12.12183 20.2031,-20.203013 25.2538,-17.172594 7.5762,4.545687 4.0406,14.647212 -3.0304,25.253814 -4.8201,7.230273 -10.4212,9.5175432 -5.5559,14.1421356 4.8654,4.6245925 20.4049,-24.8959176 24.7488,-32.3248816 0.5051,-8.586296 1.0101,-47.477169 1.0101,-47.477169 0,0 2.9887,-7.071068 9.5965,-7.071068 6.6079,0 9.5964,7.071068 9.5964,7.071068 -1.0716,25.355665 2.3283,75.5692248 -2.5253,81.8223557 -7.4147,14.1938523 -15.169,19.9144183 -25.759,36.3654913 -4.0606,5.780449 -2.9183,9.986328 -2.5253,18.687823 z"
           id="path3297"
           inkscape:connector-curvature="0"
           transform="translate(-121.5,245.86218)"
           sodipodi:nodetypes="ccssszcczccccc" />
        <path
           sodipodi:nodetypes="ccssszcczccccc"
           inkscape:connector-curvature="0"
           id="path4067"
           d="m 865.57643,299.1387 0,-46.9721 c 0,0 -9.0913,-20.20305 -20.203,-32.32488 -11.1117,-12.12183 -20.2031,-20.20301 -25.2538,-17.17259 -7.5762,4.54568 -4.0406,14.64721 3.0304,25.25381 4.8201,7.23027 10.4212,9.51754 5.5559,14.14214 -4.8654,4.62459 -20.4049,-24.89592 -24.7488,-32.32489 -0.5051,-8.58629 -1.0101,-47.47716 -1.0101,-47.47716 0,0 -2.9887,-7.07107 -9.5965,-7.07107 -6.6079,0 -9.5964,7.07107 -9.5964,7.07107 1.0716,25.35566 -2.3283,75.56922 2.5253,81.82235 7.4147,14.19385 15.169,19.91442 25.759,36.36549 4.0606,5.78045 2.9183,9.98633 2.5253,18.68783 z"
           style="fill:#0031bb;fill-opacity:1;stroke:none" />
        <path
           style="fill:#0031bb;fill-opacity:1;stroke:none"
           d="m 988.93934,-72.992553 0.50508,37.88072 -31.31473,-25.253813 0,-36.365492 z"
           id="path4069"
           inkscape:connector-curvature="0"
           transform="translate(-121.5,245.86218)" />
        <path
           inkscape:connector-curvature="0"
           id="path4071"
           d="m 879.13477,172.86963 -0.50508,37.88072 31.31473,-25.25382 0,-36.36549 z"
           style="fill:#0031bb;fill-opacity:1;stroke:none" />
        <path
           style="fill:#0031bb;fill-opacity:1;stroke:none"
           d="m 994.49518,-79.053468 36.36552,-27.274122 -37.37567,-27.27412 -35.35534,26.76905 z"
           id="path4073"
           inkscape:connector-curvature="0"
           transform="translate(-121.5,245.86218)" />
      </g>
      <path
         inkscape:connector-curvature="0"
         style="fill:#0031bb;fill-opacity:1;stroke:none"
         d="m 1042.2098,59.216875 0,288.906245 286.875,0 0,-288.906245 -286.875,0 z m 16.1562,16.1875 254.5625,0 0,254.531245 -254.5625,0 0,-254.531245 z"
         id="path4082" />
      <path
         id="path4084"
         d="m 1042.2098,375.21688 0,288.90624 286.875,0 0,-288.90624 -286.875,0 z m 16.1562,16.1875 254.5625,0 0,254.53124 -254.5625,0 0,-254.53124 z"
         style="fill:#0031bb;fill-opacity:1;stroke:none"
         inkscape:connector-curvature="0" />
      <path
         inkscape:connector-curvature="0"
         style="fill:#0031bb;fill-opacity:1;stroke:none"
         d="m 729.0625,375.21688 0,288.90624 286.875,0 0,-288.90624 -286.875,0 z m 16.1562,16.1875 254.5625,0 0,254.53124 -254.5625,0 0,-254.53124 z"
         id="path4086" />
      <path
         sodipodi:nodetypes="cccccccc"
         transform="translate(-121.5,245.86218)"
         inkscape:connector-curvature="0"
         id="path4088"
         d="m 1248.5714,30.142857 0,-115.714286 -12.8571,0 27.8571,-47.142861 26.4286,45.714289 -11.4286,0.714286 -0.7143,116.428572 z"
         style="fill:#0031bb;fill-opacity:1;stroke:#000000;stroke-width:1px;stroke-linecap:butt;stroke-linejoin:miter;stroke-opacity:1" />
      <path
         style="fill:#0031bb;fill-opacity:1;stroke:#000000;stroke-width:1px;stroke-linecap:butt;stroke-linejoin:miter;stroke-opacity:1"
         d="m 1217.7857,275.29075 0,-115.71428 -12.8571,0 27.8571,-47.14287 26.4286,45.71429 -11.4286,0.71429 -0.7143,116.42857 z"
         id="path4090"
         inkscape:connector-curvature="0"
         sodipodi:nodetypes="cccccccc" />
      <rect
         transform="translate(-121.5,245.86218)"
         y="37.285713"
         x="1218.5714"
         height="20.714285"
         width="180"
         id="rect4092"
         style="fill:#0031bb;fill-opacity:1;stroke:none" />
      <path
         id="path4094"
         transform="translate(-121.5,245.86218)"
         d="m 912.84375,195.84375 c 0,0 5.7143,30.74107 10,39.3125 4.2857,8.57143 11.4465,22.83482 27.875,36.40625 14.31837,11.8282 29.68539,13.36735 33.40625,13.5625 l -0.5625,57.1875 -17.15625,0.34375 -17.84375,-0.375 0,0.71875 0,14.28125 0,0.71875 45,-0.375 45,0.375 0,-0.71875 0,-14.28125 0,-0.71875 -17.8437,0.375 -17.1563,-0.34375 L 1003,285.125 c 3.7209,-0.19515 19.1191,-1.7343 33.4375,-13.5625 16.4285,-13.57143 23.558,-27.83482 27.8437,-36.40625 4.2857,-8.57143 10,-39.3125 10,-39.3125 l -72.125,0 -17.1562,0 -72.15625,0 z"
         style="fill:#0031bb;fill-opacity:1;stroke:none"
         inkscape:connector-curvature="0" />
      <path
         sodipodi:nodetypes="csccscscscccczczcsccscc"
         transform="translate(-121.5,245.86218)"
         inkscape:connector-curvature="0"
         id="path4099"
         d="m 1275,340.14286 c 0,0 -3.5714,25 21.4286,25 25,0 22.1428,-24.28572 22.1428,-24.28572 l -0.7143,-85 c 0,0 7.8404,-3.9888 17.8572,-3.57143 17.1428,0.71429 19.2857,9.28572 19.2857,9.28572 0,0 5.7143,-9.28572 23.5714,-9.28572 17.8572,0 22.1429,10 22.1429,10 0,0 1.4286,-30 -32.1428,-47.85714 -33.5715,-17.85714 -49.2858,-14.28571 -49.2858,-14.28571 l 0,-17.85715 -16.4286,0 0,17.85715 c 0,0 -25.3488,-1.77274 -55.7143,19.28572 -30.3654,21.05845 -25.7142,42.85714 -25.7142,42.85714 0,0 0.7142,-9.28572 22.8571,-9.28572 22.1428,0 22.1429,10 22.1429,10 0,0 5.7143,-10.71428 21.4285,-10.71428 12.1429,0 16.4286,4.28571 16.4286,4.28571 l -0.7143,83.57143 c 0,0 1.4286,9.28571 -7.1428,9.28571 -8.5715,0 -5.7143,-9.28571 -5.7143,-9.28571 z"
         style="fill:#0031bb;fill-opacity:1;stroke:none" />
    </g>
    <path
       inkscape:connector-curvature="0"
       id="path4692"
       d=""
       style="fill:#000000" />
    <g
       id="g5627"
       style="fill:#0000c4;fill-opacity:1">
      <g
         id="g5353"
         transform="matrix(1.1985029,0,0,1.1985029,446.73223,-253.19442)"
         style="fill:#0000c4;fill-opacity:1">
        <path
           sodipodi:nodetypes="cssssssssssssssssssccsccssssscssssscscssscscsssssscscsssscscsssccsccssscccccscccccsscccsccssscccssscccccsscscccccsssccssscccccsccscscssscccsssscccscssscsssccccsscccscscccssscsccsssscssssssssssssssssssssscscscssscssscsccss"
           style="fill:#0000c4;fill-opacity:1"
           d="m -301.65075,863.50916 c -10.62146,-0.56539 -20.43003,-6.20764 -26.34025,-15.15191 -0.57714,-0.87342 -0.86351,-1.3426 -1.32617,-2.1728 -2.49726,-4.48111 -3.91661,-9.37083 -4.21621,-14.52506 -0.0556,-0.95602 -0.0221,-3.96189 0.0533,-4.78078 0.13464,-1.46336 0.29002,-2.56488 0.53923,-3.82257 1.13261,-5.71621 3.74607,-11.05684 7.58892,-15.50805 2.58541,-2.99471 5.73598,-5.55154 9.24942,-7.50632 0.71789,-0.39941 2.33063,-1.1872 3.09331,-1.511 4.41309,-1.87361 9.08274,-2.77673 13.86967,-2.68243 1.66046,0.0327 2.88346,0.12655 4.28319,0.32865 4.9763,0.71847 9.6889,2.52236 13.88295,5.31414 5.71931,3.80707 10.12691,9.22259 12.69019,15.59218 2.63297,6.54276 3.14075,13.9362 1.42868,20.80187 -0.61008,2.44648 -1.38654,4.55725 -2.50989,6.82297 -0.74236,1.49729 -1.24554,2.37024 -2.15478,3.73825 -1.29331,1.94585 -2.57513,3.50761 -4.26983,5.2023 -1.64038,1.64039 -3.14664,2.8854 -5.0064,4.1381 -5.1387,3.46134 -10.93802,5.40071 -17.12108,5.72552 -0.80212,0.0421 -2.91761,0.0404 -3.73421,-0.003 z m 1.05978,-8.00802 c 0.007,-5.00425 0,-6.29047 -0.0356,-6.31303 -0.0515,-0.0327 -12.35237,-0.0404 -12.43734,-0.008 -0.031,0.0119 -0.0563,0.036 -0.0563,0.0536 0,0.0176 0.11842,0.30841 0.26316,0.64624 1.5628,3.64769 3.53405,6.63593 5.71192,8.65878 1.65809,1.54006 3.36376,2.53886 5.14824,3.0147 0.46766,0.1247 1.13737,0.24878 1.29012,0.23902 l 0.10686,-0.007 z m 2.30293,6.23185 c 1.54304,-0.26379 2.98888,-0.88749 4.42018,-1.90673 2.87097,-2.04445 5.4133,-5.54411 7.36029,-10.13191 0.19123,-0.45059 0.19854,-0.48272 0.11692,-0.51404 -0.0737,-0.0283 -12.35177,-0.0283 -12.42543,0 -0.0511,0.0196 -0.0563,0.60768 -0.0563,6.29874 0,3.45241 0.0107,6.2878 0.0237,6.30086 0.0361,0.0361 0.11201,0.0298 0.56063,-0.0469 z m -8.72147,-0.82461 c -3.16711,-2.49126 -5.75653,-6.20052 -7.71751,-11.05511 -0.13453,-0.33304 -0.2719,-0.62557 -0.30528,-0.65006 -0.0479,-0.0351 -1.12453,-0.0444 -5.10294,-0.044 -3.01283,3.6e-4 -5.06316,0.0138 -5.09417,0.0334 -0.0605,0.0383 0.0823,0.25975 0.58667,0.91001 3.8362,4.94593 11.21199,9.60058 17.18599,10.8456 0.50455,0.10515 0.61864,0.095 0.44724,-0.0398 z m 15.16151,0.006 c 0.68043,-0.14161 1.4333,-0.34962 2.25709,-0.62362 5.62998,-1.87257 11.74651,-6.12955 14.93337,-10.39331 0.47871,-0.64048 0.494,-0.6655 0.43109,-0.70532 -0.0293,-0.0186 -2.16992,-0.0323 -5.09289,-0.0326 -3.97841,-4.2e-4 -5.05507,0.009 -5.10294,0.044 -0.0334,0.0245 -0.17075,0.31702 -0.30528,0.65006 -0.37845,0.9369 -0.69082,1.62926 -1.18174,2.61938 -0.69434,1.40037 -1.12716,2.15772 -1.9026,3.3291 -1.23998,1.87313 -2.61209,3.44485 -4.04345,4.63166 -0.73763,0.61162 -0.70811,0.58275 -0.59818,0.58481 0.053,10e-4 0.32551,-0.0459 0.60553,-0.10416 z m -23.83833,-13.46347 c 0.044,-0.0278 0.0262,-0.11496 -0.11576,-0.56644 -0.0923,-0.29347 -0.16775,-0.56445 -0.16775,-0.60218 0,-0.0644 0.042,-0.0703 0.68568,-0.096 0.37712,-0.0151 0.76543,-0.0296 0.86291,-0.0323 l 0.17724,-0.005 0.21458,0.63409 c 0.11802,0.34875 0.23862,0.64904 0.26801,0.66732 0.0589,0.0366 13.02789,0.0492 13.12292,0.0127 0.0512,-0.0196 0.0563,-0.79779 0.0563,-8.45585 0,-7.65805 -0.005,-8.43622 -0.0563,-8.45585 -0.031,-0.0119 -0.17525,-0.0216 -0.32058,-0.0216 l -0.26423,0 0,-0.83706 0,-0.83706 0.27605,-5.3e-4 c 0.15183,-3.6e-4 0.29612,-0.0133 0.32065,-0.0289 0.0355,-0.0226 0.0428,-1.73619 0.0356,-8.45021 l -0.009,-8.42189 -6.6043,0 -6.6043,0 -0.15441,0.46167 c -0.0849,0.25391 -0.1745,0.47997 -0.19905,0.50235 -0.0319,0.0291 -0.17118,0.0329 -0.48988,0.0132 -0.24489,-0.0151 -0.62557,-0.0288 -0.84597,-0.0304 -0.2954,-0.002 -0.40067,-0.0146 -0.40052,-0.0474 0,-0.0245 0.056,-0.22084 0.12408,-0.43634 0.0681,-0.2155 0.12414,-0.41185 0.12447,-0.43634 4.6e-4,-0.0354 -1.10897,-0.0445 -5.43002,-0.0445 l -5.43061,0 -0.0711,0.0763 c -0.11566,0.12416 -0.61255,0.86915 -0.89937,1.34846 -2.45211,4.09776 -4.25142,10.09387 -4.39863,14.65818 -0.0279,0.86616 -0.0416,0.83636 0.38213,0.83636 l 0.28242,0 0,0.83706 0,0.83706 -0.28242,0 c -0.4236,0 -0.41,-0.0297 -0.38258,0.83611 0.14544,4.59131 1.98493,10.68374 4.45808,14.76529 0.34961,0.57698 0.84829,1.28848 0.92479,1.31947 0.10219,0.0414 10.7454,0.0415 10.81084,0 z m -1.04933,-8.88727 c -0.60278,-0.12756 -0.97717,-0.25738 -1.01186,-0.35084 -0.0325,-0.0875 -0.22404,-1.6099 -0.30563,-2.42896 -0.1399,-1.40453 -0.22188,-2.69936 -0.26335,-4.15915 -0.016,-0.56355 -0.0409,-1.0364 -0.0552,-1.05078 -0.0144,-0.0144 -0.94246,-0.0342 -2.06241,-0.044 l -2.03627,-0.0178 -0.01,-0.82815 -0.01,-0.82816 2.02207,-5.3e-4 c 1.11214,-3.6e-4 2.04436,-0.0147 2.0716,-0.0319 0.0391,-0.0248 0.0556,-0.23644 0.0785,-1.00571 0.0604,-2.02757 0.2056,-3.8854 0.46176,-5.90767 0.14377,-1.13502 0.12738,-1.06679 0.27061,-1.12664 0.37683,-0.15745 1.54593,-0.38159 1.61743,-0.31009 0.022,0.022 0.002,0.2574 -0.0561,0.65537 -0.31724,2.18012 -0.50675,4.26491 -0.59178,6.51019 -0.0375,0.99121 -0.0366,1.15617 0.007,1.1838 0.0279,0.0177 0.27113,0.0324 0.5405,0.0327 l 0.48977,5.3e-4 0,0.83706 0,0.83706 -0.48977,5.4e-4 c -0.26937,3.5e-4 -0.51251,0.0149 -0.5403,0.0325 -0.0434,0.0275 -0.0445,0.18799 -0.008,1.13038 0.086,2.22387 0.30436,4.64542 0.59067,6.55127 0.0287,0.1912 0.044,0.36089 0.034,0.37709 -0.0318,0.0515 -0.33988,0.0275 -0.7442,-0.0581 z m 31.05562,8.87565 c 0.0381,-0.0279 0.17718,-0.39824 0.35775,-0.95283 l 0.29539,-0.90722 0.87794,-0.01 c 0.71595,-0.008 0.87794,-7.1e-4 0.87794,0.0383 0,0.0263 -0.1142,0.4153 -0.25377,0.8644 -0.13957,0.4491 -0.26209,0.84623 -0.27225,0.88252 -0.0102,0.0363 0.004,0.0801 0.0311,0.0974 0.0661,0.0419 10.68697,0.0424 10.79707,5.7e-4 0.24856,-0.0945 1.50773,-2.19012 2.17685,-3.6229 1.60442,-3.43554 2.72105,-7.30633 3.10205,-10.75331 0.13567,-1.22734 0.16898,-2.39304 0.0712,-2.49083 -0.0505,-0.0505 -0.70067,-0.056 -6.62525,-0.056 l -6.56928,10e-6 0,-0.83706 0,-0.83706 6.56502,0 c 5.46734,0 6.57605,-0.008 6.63102,-0.0483 0.0621,-0.0454 0.0646,-0.095 0.0429,-0.82815 -0.0875,-2.9552 -0.90454,-6.648 -2.23731,-10.11224 -0.79494,-2.06625 -1.79275,-4.03338 -2.76439,-5.4498 l -0.31764,-0.46305 -5.45584,-0.009 c -3.73883,-0.006 -5.45583,0.003 -5.45583,0.0278 0,0.0202 0.11152,0.39298 0.2478,0.82827 0.13629,0.43529 0.25825,0.83552 0.27101,0.88939 l 0.0232,0.098 -0.88956,0 -0.88956,0 -0.13713,-0.43634 c -0.0754,-0.23999 -0.21094,-0.65273 -0.30115,-0.91721 l -0.16402,-0.48086 -6.60494,0 -6.60495,0 -0.009,8.42189 c -0.007,6.71402 0,8.42764 0.0356,8.45021 0.0245,0.0156 2.16441,0.0286 4.7553,0.0289 l 4.71069,5.4e-4 0,0.83706 0,0.83706 -4.69888,0 c -2.58438,0 -4.72423,0.01 -4.75522,0.0216 -0.0512,0.0196 -0.0563,0.79787 -0.0563,8.4567 0,6.71473 0.009,8.43873 0.0445,8.45303 0.0245,0.01 2.97874,0.0192 6.56501,0.0208 5.24532,0.002 6.53268,-0.006 6.58284,-0.0428 z m -29.3505,-37.25818 c 0.0343,-0.0251 0.17912,-0.33517 0.32174,-0.68904 0.37605,-0.93298 0.75398,-1.75837 1.28642,-2.80947 1.04797,-2.06882 2.13925,-3.74892 3.49353,-5.37856 0.69726,-0.83904 2.23914,-2.32947 2.91728,-2.81996 0.0587,-0.0425 0.0937,-0.0904 0.0776,-0.10641 -0.016,-0.016 -0.28217,0.0228 -0.59139,0.0864 -4.02897,0.82788 -9.07775,3.42229 -13.03943,6.70056 -0.80424,0.6655 -1.27646,1.09814 -2.121,1.94325 -1.06168,1.0624 -1.85196,1.9819 -2.41896,2.81449 -0.15187,0.22301 -0.16212,0.25025 -0.10292,0.27355 0.0362,0.0142 2.32676,0.027 5.09022,0.0284 4.03237,0.002 5.03679,-0.007 5.08689,-0.0431 z m 14.39204,0.024 c 0.0511,-0.0196 0.0563,-0.60802 0.0563,-6.30257 0,-3.80675 -0.013,-6.28897 -0.0329,-6.3013 -0.0474,-0.0293 -0.70245,0.0737 -1.16033,0.18238 -2.7219,0.64614 -5.35816,2.58871 -7.62955,5.62195 -1.24946,1.66854 -2.4627,3.80708 -3.41134,6.01303 -0.26417,0.6143 -0.3099,0.74696 -0.26686,0.77418 0.0573,0.0363 12.35056,0.0485 12.44467,0.0123 z m 14.26535,-0.0113 c 0.0598,-0.0379 0.0763,0.008 -0.34524,-0.96387 -1.13759,-2.62301 -2.50399,-4.8969 -4.0726,-6.77741 -0.50258,-0.60251 -1.80956,-1.8986 -2.34667,-2.32711 -1.65499,-1.32037 -3.18507,-2.07761 -4.87989,-2.41508 -0.24488,-0.0488 -0.5334,-0.0936 -0.64115,-0.0997 l -0.19591,-0.0111 -0.009,6.28471 c -0.007,5.00425 0,6.29047 0.0356,6.31303 0.0623,0.0396 12.39226,0.0362 12.45484,-0.003 z m 12.16842,-0.01 c 0.0468,-0.0468 -0.695,-1.04152 -1.32295,-1.77395 -0.75713,-0.8831 -2.12135,-2.21205 -3.20225,-3.11945 -3.95839,-3.32304 -9.15131,-6.00642 -13.22827,-6.83555 -0.47011,-0.0956 -0.58698,-0.10785 -0.56799,-0.0595 0.007,0.0166 0.19381,0.1757 0.41618,0.3535 2.10677,1.68453 4.05436,4.14006 5.69536,7.18075 0.57508,1.06557 1.29422,2.60954 1.71932,3.69132 0.10393,0.26448 0.22044,0.50908 0.25892,0.54356 0.0662,0.0593 0.34296,0.0622 5.1384,0.0534 2.78765,-0.005 5.07962,-0.0204 5.09328,-0.0341 z"
           id="path4542"
           inkscape:connector-curvature="0" />
        <path
           sodipodi:nodetypes="cssssssssssssssssccsssssssssssss"
           style="fill:#0000c4;fill-opacity:1"
           d="m -351.09236,845.25574 c -1.35023,-0.0666 -2.71022,-0.31274 -3.96314,-0.71719 -2.67112,-0.86224 -5.27943,-2.80944 -6.9239,-5.16896 -0.70749,-1.01511 -1.4679,-2.4884 -1.98057,-3.83733 -0.76959,-2.02494 -1.10354,-3.83457 -1.10415,-5.98322 -5.3e-4,-1.91545 0.24268,-3.41035 0.85196,-5.23635 0.31649,-0.94849 0.53683,-1.49324 0.94403,-2.33395 1.12847,-2.32979 2.45279,-3.9515 4.42656,-5.42058 1.96939,-1.46582 4.26897,-2.32668 7.03612,-2.63401 0.75148,-0.0835 2.43696,-0.0835 3.18844,0 2.9274,0.32513 5.17076,1.22579 7.45317,2.99228 0.51231,0.3965 1.75639,1.64723 2.16669,2.17825 1.63114,2.11109 2.81317,4.73788 3.31754,7.37247 0.35684,1.86395 0.35659,4.21101 -6.7e-4,6.12737 -0.48633,2.60876 -1.7999,5.55829 -3.33127,7.48012 -0.4142,0.51981 -1.60031,1.69987 -2.1345,2.12361 -1.79005,1.41993 -3.62607,2.29184 -5.75847,2.73464 -1.29607,0.26914 -2.84954,0.38889 -4.18786,0.32285 z m 2.0922,-5.7145 c 1.78281,-0.32623 3.29824,-1.21307 4.46179,-2.61107 1.70637,-2.05019 2.56867,-5.47819 2.21723,-8.81442 -0.20362,-1.93303 -0.80847,-3.81843 -1.63639,-5.1009 -0.80694,-1.24998 -1.88773,-2.21889 -3.15998,-2.83288 -1.85408,-0.8948 -4.07691,-0.93504 -5.99672,-0.10857 -1.60626,0.69149 -2.94702,1.9714 -3.77893,3.60743 -0.62985,1.23866 -1.01568,2.53168 -1.23447,4.13705 -0.10729,0.78725 -0.116,2.76534 -0.0155,3.51214 0.20784,1.54389 0.54476,2.6747 1.1833,3.97159 0.54206,1.1009 1.16788,1.92211 1.98575,2.6057 1.08024,0.90288 2.29729,1.43972 3.78329,1.66881 0.44897,0.0692 1.73354,0.0488 2.19061,-0.0349 z"
           id="path4538"
           inkscape:connector-curvature="0" />
        <path
           sodipodi:nodetypes="cssssssssscccccssssscsssssscscccccccccscsssccssscssscccscs"
           style="fill:#0000c4;fill-opacity:1"
           d="m -316.7388,845.15116 c -0.44957,-0.0309 -1.40896,-0.16751 -1.96749,-0.28022 -3.66779,-0.74015 -6.92493,-3.01075 -8.9126,-6.2131 -1.30292,-2.09916 -2.21219,-4.62251 -2.50928,-6.96364 -0.17372,-1.36891 -0.17392,-3.01513 -5.3e-4,-4.38121 0.22673,-1.7864 0.89432,-3.85109 1.87889,-5.81097 1.71881,-3.42143 4.87548,-6.05801 8.47773,-7.08095 2.67648,-0.76004 5.87147,-0.76587 8.5365,-0.0156 2.32214,0.65376 4.26083,1.79867 5.99772,3.542 1.11329,1.11742 1.8837,2.20851 2.66121,3.76893 l 0.35284,0.70812 0,0.90366 0,0.90367 -3.1268,0 -3.1268,0 -0.24214,-0.48034 c -1.04715,-2.07723 -2.80661,-3.56389 -4.8491,-4.09725 -0.67109,-0.17524 -1.15414,-0.23881 -1.83442,-0.24141 -1.18147,-0.005 -2.23616,0.23337 -3.25919,0.73508 -2.6625,1.30573 -4.23561,3.89452 -4.7435,7.80616 -0.0921,0.70951 -0.0923,2.52991 -3.6e-4,3.24138 0.34079,2.63513 1.25522,4.73169 2.70818,6.20919 0.9482,0.9642 2.02346,1.60155 3.28663,1.9481 0.7297,0.20019 1.11099,0.24816 1.97253,0.24816 0.57504,0 0.86234,-0.0162 1.15327,-0.0648 1.06303,-0.17792 2.03072,-0.56399 2.94298,-1.17413 1.47923,-0.98934 2.57105,-2.52237 3.24313,-4.5537 0.19196,-0.58017 0.20471,-0.653 0.12001,-0.6855 -0.031,-0.0119 -1.5377,-0.0216 -3.34824,-0.0216 l -3.2919,0 0,-2.45775 0,-2.45776 6.19781,0 6.19782,0 0,8.17471 0,8.1747 -2.24404,0 -2.24404,0 0,-1.4753 c 0,-0.81141 -0.01,-1.50065 -0.0216,-1.53164 -0.0119,-0.031 -0.0358,-0.0563 -0.0532,-0.0563 -0.0174,0 -0.17996,0.13792 -0.36129,0.3065 -2.07778,1.93163 -4.53889,3.04156 -7.41366,3.34346 -0.47052,0.0494 -1.65317,0.0654 -2.17713,0.0294 z m -103.56408,-15.52291 c 0,-13.61787 0.005,-14.94813 0.0564,-14.92844 0.031,0.0119 1.52167,0.0216 3.31262,0.0216 l 3.25629,0 0,12.10813 c 0,10.9599 0.005,12.11344 0.056,12.16411 0.0505,0.0505 0.76544,0.056 7.33764,0.056 l 7.28167,0 0,2.74271 0,2.74271 -10.59392,0 c -5.82666,0 -10.61928,0.01 -10.65027,0.0216 -0.0513,0.0197 -0.0564,-1.31058 -0.0564,-14.92844 z"
           id="path4534"
           inkscape:connector-curvature="0" />
        <path
           sodipodi:nodetypes="ssssssssssssscscsssssssssssccccsssssscsssssssssssccscsssccssssssscsscssscccccccscsscscccscscccssscccscscsscsscscccsssssccccc"
           style="fill:#0000c4;fill-opacity:1"
           d="m -383.41186,845.17202 c -1.47184,-0.1389 -2.50205,-0.34712 -3.65101,-0.73792 -1.41693,-0.48195 -2.54257,-1.08217 -3.77431,-2.01258 -0.83593,-0.63143 -1.82616,-1.59403 -2.46787,-2.39904 -1.83264,-2.29898 -3.20479,-5.71641 -3.5151,-8.75457 -0.1552,-1.51948 -0.0812,-3.33643 0.1965,-4.82647 0.37107,-1.99085 1.34115,-4.45203 2.42883,-6.16219 1.11242,-1.74907 2.7561,-3.33951 4.62079,-4.47116 1.9283,-1.17024 4.05804,-1.77892 6.74986,-1.9291 1.13205,-0.0632 2.36042,0.0158 3.45514,0.22216 2.46084,0.46383 4.51999,1.53384 6.37121,3.31072 1.16178,1.11514 2.01984,2.3413 2.7597,3.94365 0.25175,0.54521 0.68972,1.63957 0.87574,2.1882 0.15622,0.46074 0.37692,1.30033 0.34912,1.32812 -0.0111,0.0111 -1.45686,0.0201 -3.21284,0.0201 l -3.1927,0 -0.20633,-0.52539 c -0.5263,-1.34016 -1.03305,-2.18747 -1.72921,-2.89132 -0.98842,-0.99932 -2.13554,-1.63085 -3.47252,-1.91176 -0.53034,-0.11142 -1.54985,-0.15463 -2.10583,-0.0892 -2.27763,0.26784 -4.2735,1.54089 -5.48412,3.498 -1.40279,2.26779 -2.00531,5.45898 -1.59989,8.47373 0.22854,1.69951 0.74207,3.20649 1.5652,4.5932 0.57013,0.96047 1.32226,1.73051 2.38101,2.43769 1.59361,1.06444 3.74553,1.44563 5.53231,0.98001 1.19003,-0.31012 2.26385,-0.92651 3.12897,-1.79608 0.949,-0.95387 1.68391,-2.35291 2.12819,-4.05141 l 0.15127,-0.57833 3.18043,-0.009 3.18042,-0.009 -0.0225,0.13377 c -0.31155,1.84809 -0.95712,3.71938 -1.87711,5.44109 -1.23603,2.31319 -3.1402,4.15251 -5.49472,5.3076 -1.4676,0.71999 -2.95032,1.11864 -4.69482,1.26229 -0.40911,0.0337 -2.23997,0.044 -2.55377,0.0144 z m 120.24128,-0.66937 c -0.33265,-0.11866 -0.56836,-0.3684 -0.68538,-0.72619 -0.0867,-0.2651 -0.0591,-0.74312 0.0568,-0.9856 0.1883,-0.39365 0.56629,-0.62335 1.02581,-0.62335 0.38173,0 0.58854,0.079 0.82469,0.31519 0.25255,0.25255 0.33515,0.46897 0.33515,0.87807 0,0.40911 -0.0826,0.62552 -0.33515,0.87807 -0.15392,0.15392 -0.24736,0.21547 -0.39258,0.25859 -0.23082,0.0685 -0.64456,0.0711 -0.82939,0.005 z m 19.47672,0.0116 c -1.96316,-0.28523 -3.1163,-1.68744 -3.1163,-3.78937 0,-1.96987 1.0523,-3.52267 2.66656,-3.93482 0.59725,-0.15249 1.42038,-0.15971 1.97003,-0.0173 1.14679,0.29716 1.91421,1.18328 2.20627,2.5475 0.0653,0.30502 0.08,0.48976 0.082,1.0306 0.001,0.36243 -0.009,0.68702 -0.023,0.7213 -0.0239,0.0585 -0.17935,0.0623 -2.55662,0.0623 -2.28382,0 -2.53336,0.006 -2.55303,0.0568 -0.043,0.11196 0.0678,0.55673 0.20874,0.83836 0.39781,0.79479 1.27618,1.18708 2.51142,1.12164 0.51166,-0.0271 0.93637,-0.0951 1.39278,-0.22303 0.18208,-0.051 0.3364,-0.0868 0.34294,-0.0795 0.0321,0.0358 0.26179,1.22769 0.24078,1.24923 -0.0467,0.0479 -0.66858,0.23496 -1.02162,0.30733 -0.1959,0.0402 -0.51184,0.09 -0.70208,0.11083 -0.40291,0.044 -1.33992,0.043 -1.64881,-0.002 z m 2.0304,-4.72066 c 0.0461,-0.0461 0.0537,-0.0974 0.0357,-0.24043 -0.0614,-0.48765 -0.23413,-0.90717 -0.48616,-1.18059 -0.59797,-0.64871 -1.75103,-0.59812 -2.36532,0.10379 -0.3017,0.34473 -0.62902,1.18475 -0.51512,1.32198 0.0387,0.0466 0.26182,0.0539 1.65848,0.0539 1.45032,0 1.61973,-0.006 1.67239,-0.0586 z m 7.64893,4.69096 c -0.34363,-0.093 -0.52206,-0.17605 -0.75152,-0.34979 -0.38664,-0.29274 -0.6213,-0.72225 -0.74072,-1.35577 -0.0479,-0.25407 -0.062,-0.6841 -0.0798,-2.42812 l -0.0216,-2.11937 -0.52538,-0.01 -0.52539,-0.01 0,-0.69268 0,-0.69268 0.52539,-0.01 0.52538,-0.01 0.01,-0.68679 c 0.009,-0.67191 0.0114,-0.68754 0.089,-0.72096 0.095,-0.0409 1.65939,-0.4979 1.70434,-0.4979 0.0172,0 0.0313,0.41479 0.0313,0.92175 0,0.75035 0.009,0.92951 0.0503,0.96349 0.0363,0.0301 0.29923,0.0388 0.94395,0.0311 l 0.89366,-0.0107 0,0.71239 0,0.71239 -0.89366,-0.0107 c -0.6677,-0.008 -0.90699,3.9e-4 -0.9464,0.0331 -0.0814,0.0676 -0.051,3.77125 0.0333,4.05246 0.15221,0.50775 0.44189,0.72785 0.96293,0.73163 0.16039,10e-4 0.38189,-0.0108 0.49223,-0.0266 l 0.20062,-0.0287 0.0262,0.6817 c 0.0146,0.37904 0.0125,0.69455 -0.005,0.71063 -0.0852,0.0796 -0.59802,0.15354 -1.15296,0.16617 -0.501,0.0114 -0.62587,0.003 -0.84627,-0.0566 z m -23.6347,-3.8042 c -0.009,-2.03254 -0.0221,-3.72759 -0.0296,-3.76677 -0.0132,-0.0693 0.008,-0.0715 0.79209,-0.0808 l 0.80568,-0.01 0.0219,0.20548 c 0.012,0.113 0.0326,0.35516 0.0457,0.53812 0.0251,0.35202 0.0794,0.4448 0.17873,0.30538 0.41789,-0.58684 0.93158,-0.94649 1.60184,-1.12152 0.39412,-0.10291 1.0951,-0.10345 1.48458,-10e-4 0.44593,0.11715 0.74718,0.29434 1.09904,0.64641 0.25828,0.25844 0.33454,0.36282 0.46996,0.64327 0.17778,0.36816 0.28451,0.74483 0.34187,1.20651 0.0229,0.18445 0.0375,1.24077 0.0375,2.716 l 0,2.41416 -0.92426,0 -0.92427,0 -0.0121,-2.39542 c -0.0116,-2.28653 -0.0155,-2.40682 -0.0849,-2.64633 -0.2006,-0.69183 -0.57232,-1.05697 -1.17115,-1.1504 -0.76904,-0.11998 -1.54323,0.40392 -1.77765,1.20297 -0.0495,0.16857 -0.0568,0.50208 -0.0568,2.59132 l 0,2.39786 -0.94106,0 -0.94106,0 -0.016,-3.69553 z"
           id="path4532"
           inkscape:connector-curvature="0" />
        <path
           sodipodi:nodetypes="cscccccccccccccsc"
           style="fill:#0000c4;fill-opacity:1"
           d="m -288.407,844.54709 c -0.0333,-0.0333 -0.0429,-2.66116 -0.0429,-11.73671 l 0,-11.69379 -4.42574,-0.009 -4.42573,-0.009 0,-3.18796 0,-3.18795 12.18191,0 12.18191,0 0,3.18795 0,3.18796 -4.41683,0.0178 -4.41684,0.0178 -0.0178,11.71886 -0.0178,11.71886 -3.2786,0.009 c -2.52051,0.007 -3.28853,-8.6e-4 -3.32153,-0.0338 z"
           id="path4530"
           inkscape:connector-curvature="0" />
      </g>
      <path
         sodipodi:nodetypes="cccccccccccc"
         inkscape:connector-curvature="0"
         id="rect5618"
         transform="translate(-121.5,245.86218)"
         d="m 39.59375,453.5 0,81.3125 6.375,0 0,0.25 18.375,0 0,-13.0625 -10.1875,0 0,-55.4375 10.1875,0 0,-13.0625 -9.1875,0 z"
         style="fill:#0000c4;fill-opacity:1;stroke:none" />
      <path
         style="fill:#0000c4;fill-opacity:1;stroke:none"
         d="m 192.84375,699.36218 0,81.3125 -6.375,0 0,0.25 -18.375,0 0,-13.0625 10.1875,0 0,-55.4375 -10.1875,0 0,-13.0625 9.1875,0 z"
         id="path5625"
         inkscape:connector-curvature="0"
         sodipodi:nodetypes="cccccccccccc" />
    </g>
  </g>
</svg>
